{
  "accessors": [
    {
      "bufferView": 2,
      "componentType": 5126,
      "count": 65532,
      "max": [
        3.963907241821289,
        -5.6253275871276855,
        2.2693541049957275
      ],
      "min": [
        3.046968936920166,
        -6.162117004394531,
        2.1345484256744385
      ],
      "type": "VEC3"
    },
    {
      "bufferView": 2,
      "byteOffset": 786384,
      "componentType": 5126,
      "count": 65532,
      "max": [
        0.9959309697151184,
        0.984289824962616,
        0.9965319037437439
      ],
      "min": [
        -0.9518280625343323,
        -0.9992424249649048,
        -0.9999996423721313
      ],
      "type": "VEC3"
    },
    {
      "bufferView": 1,
      "componentType": 5126,
      "count": 65532,
      "max": [
        0.9941982626914978,
        0.9999697208404541
      ],
      "min": [
        0.0001499414793215692,
        0.002487179823219776
      ],
      "type": "VEC2"
    },
    {
      "bufferView": 0,
      "componentType": 5125,
      "count": 369888,
      "type": "SCALAR"
    },
    {
      "bufferView": 2,
      "byteOffset": 1572768,
      "componentType": 5126,
      "count": 65532,
      "max": [
        6.025957107543945,
        -4.66603422164917,
        2.538982629776001
      ],
      "min": [
        2.9187192916870117,
        -7.533612251281738,
        1.8912736177444458
      ],
      "type": "VEC3"
    },
    {
      "bufferView": 2,
      "byteOffset": 2359152,
      "componentType": 5126,
      "count": 65532,
      "max": [
        0.9849258065223694,
        0.9937159419059753,
        0.9908654689788818
      ],
      "min": [
        -0.9971960783004761,
        -0.9978131651878357,
        -0.9999991059303284
      ],
      "type": "VEC3"
    },
    {
      "bufferView": 1,
      "byteOffset": 524256,
      "componentType": 5126,
      "count": 65532,
      "max": [
        0.9938579797744751,
        0.9999911189079285
      ],
      "min": [
        0.000400700606405735,
        4.491768777370453e-06
      ],
      "type": "VEC2"
    },
    {
      "bufferView": 0,
      "byteOffset": 1479552,
      "componentType": 5125,
      "count": 339690,
      "type": "SCALAR"
    },
    {
      "bufferView": 2,
      "byteOffset": 3145536,
      "componentType": 5126,
      "count": 65532,
      "max": [
        5.463326454162598,
        -5.212347030639648,
        2.83937668800354
      ],
      "min": [
        1.5398478507995605,
        -8.319336891174316,
        2.04860520362854
      ],
      "type": "VEC3"
    },
    {
      "bufferView": 2,
      "byteOffset": 3931920,
      "componentType": 5126,
      "count": 65532,
      "max": [
        0.996708869934082,
        0.9961116909980774,
        0.996756374835968
      ],
      "min": [
        -0.9953829050064087,
        -0.9999098181724548,
        -0.9999991059303284
      ],
      "type": "VEC3"
    },
    {
      "bufferView": 1,
      "byteOffset": 1048512,
      "componentType": 5126,
      "count": 65532,
      "max": [
        0.9964787364006042,
        0.9999094009399414
      ],
      "min": [
        0.0007553398609161377,
        0.00023635663092136383
      ],
      "type": "VEC2"
    },
    {
      "bufferView": 0,
      "byteOffset": 2838312,
      "componentType": 5125,
      "count": 355149,
      "type": "SCALAR"
    },
    {
      "bufferView": 2,
      "byteOffset": 4718304,
      "componentType": 5126,
      "count": 65532,
      "max": [
        7.590741157531738,
        -2.8380630016326904,
        2.5468027591705322
      ],
      "min": [
        1.057642936706543,
        -6.74714994430542,
        1.3985062837600708
      ],
      "type": "VEC3"
    },
    {
      "bufferView": 2,
      "byteOffset": 5504688,
      "componentType": 5126,
      "count": 65532,
      "max": [
        0.9974164962768555,
        0.9982839822769165,
        0.9993917346000671
      ],
      "min": [
        -0.9935309290885925,
        -0.9990975260734558,
        -0.999999463558197
      ],
      "type": "VEC3"
    },
    {
      "bufferView": 1,
      "byteOffset": 1572768,
      "componentType": 5126,
      "count": 65532,
      "max": [
        0.9964791536331177,
        0.9970117211341858
      ],
      "min": [
        7.360242307186127e-05,
        0.002925900276750326
      ],
      "type": "VEC2"
    },
    {
      "bufferView": 0,
      "byteOffset": 4258908,
      "componentType": 5125,
      "count": 353262,
      "type": "SCALAR"
    },
    {
      "bufferView": 2,
      "byteOffset": 6291072,
      "componentType": 5126,
      "count": 65532,
      "max": [
        7.772807598114014,
        -1.8462520837783813,
        2.0103323459625244
      ],
      "min": [
        2.6333932876586914,
        -5.516788959503174,
        1.0434819459915161
      ],
      "type": "VEC3"
    },
    {
      "bufferView": 2,
      "byteOffset": 7077456,
      "componentType": 5126,
      "count": 65532,
      "max": [
        0.9998992681503296,
        0.9958907961845398,
        0.9980430006980896
      ],
      "min": [
        -0.9995952844619751,
        -0.9971433281898499,
        -0.9999980330467224
      ],
      "type": "VEC3"
    },
    {
      "bufferView": 1,
      "byteOffset": 2097024,
      "componentType": 5126,
      "count": 65532,
      "max": [
        0.9965348839759827,
        0.9997320175170898
      ],
      "min": [
        0.000928445253521204,
        0.0008415557676926255
      ],
      "type": "VEC2"
    },
    {
      "bufferView": 0,
      "byteOffset": 5671956,
      "componentType": 5125,
      "count": 360357,
      "type": "SCALAR"
    },
    {
      "bufferView": 2,
      "byteOffset": 7863840,
      "componentType": 5126,
      "count": 65532,
      "max": [
        13.477885246276855,
        -1.6934319734573364,
        3.2684671878814697
      ],
      "min": [
        1.873896598815918,
        -11.580716133117676,
        0.7039415240287781
      ],
      "type": "VEC3"
    },
    {
      "bufferView": 2,
      "byteOffset": 8650224,
      "componentType": 5126,
      "count": 65532,
      "max": [
        0.9951452612876892,
        0.9981829524040222,
        0.9940334558486938
      ],
      "min": [
        -0.9987885355949402,
        -0.9906416535377502,
        -0.9999996423721313
      ],
      "type": "VEC3"
    },
    {
      "bufferView": 1,
      "byteOffset": 2621280,
      "componentType": 5126,
      "count": 65532,
      "max": [
        0.9963363409042358,
        0.9997885227203369
      ],
      "min": [
        0.0015850202180445194,
        0.002674045041203499
      ],
      "type": "VEC2"
    },
    {
      "bufferView": 0,
      "byteOffset": 7113384,
      "componentType": 5125,
      "count": 346386,
      "type": "SCALAR"
    },
    {
      "bufferView": 2,
      "byteOffset": 9436608,
      "componentType": 5126,
      "count": 65532,
      "max": [
        12.276459693908691,
        0.04758581891655922,
        3.8328936100006104
      ],
      "min": [
        -0.13871288299560547,
        -12.767271041870117,
        0.1645623743534088
      ],
      "type": "VEC3"
    },
    {
      "bufferView": 2,
      "byteOffset": 10222992,
      "componentType": 5126,
      "count": 65532,
      "max": [
        0.9887843728065491,
        0.9880795478820801,
        0.9953309893608093
      ],
      "min": [
        -0.998848021030426,
        -0.9998393058776855,
        -1.0
      ],
      "type": "VEC3"
    },
    {
      "bufferView": 1,
      "byteOffset": 3145536,
      "componentType": 5126,
      "count": 65532,
      "max": [
        0.9962069392204285,
        0.9972804188728333
      ],
      "min": [
        3.0545517802238464e-05,
        0.002290756208822131
      ],
      "type": "VEC2"
    },
    {
      "bufferView": 0,
      "byteOffset": 8498928,
      "componentType": 5125,
      "count": 353205,
      "type": "SCALAR"
    },
    {
      "bufferView": 2,
      "byteOffset": 11009376,
      "componentType": 5126,
      "count": 65532,
      "max": [
        11.214852333068848,
        -4.163321018218994,
        3.880485773086548
      ],
      "min": [
        4.016600608825684,
        -13.373940467834473,
        1.5562020540237427
      ],
      "type": "VEC3"
    },
    {
      "bufferView": 2,
      "byteOffset": 11795760,
      "componentType": 5126,
      "count": 65532,
      "max": [
        0.9936481714248657,
        0.9927715063095093,
        0.9959200024604797
      ],
      "min": [
        -0.994945764541626,
        -0.9955461025238037,
        -0.9999932050704956
      ],
      "type": "VEC3"
    },
    {
      "bufferView": 1,
      "byteOffset": 3669792,
      "componentType": 5126,
      "count": 65532,
      "max": [
        0.9965389966964722,
        0.9906004667282104
      ],
      "min": [
        0.0019948408007621765,
        0.0007556473137810826
      ],
      "type": "VEC2"
    },
    {
      "bufferView": 0,
      "byteOffset": 9911748,
      "componentType": 5125,
      "count": 331188,
      "type": "SCALAR"
    },
    {
      "bufferView": 2,
      "byteOffset": 12582144,
      "componentType": 5126,
      "count": 33488,
      "max": [
        7.962083339691162,
        -2.0809614658355713,
        2.1939032077789307
      ],
      "min": [
        4.071224689483643,
        -6.0951247215271,
        1.0760117769241333
      ],
      "type": "VEC3"
    },
    {
      "bufferView": 2,
      "byteOffset": 12984000,
      "componentType": 5126,
      "count": 33488,
      "max": [
        0.9988914728164673,
        0.9997861385345459,
        0.9996810555458069
      ],
      "min": [
        -0.9999568462371826,
        -0.9982916712760925,
        -0.9999992847442627
      ],
      "type": "VEC3"
    },
    {
      "bufferView": 1,
      "byteOffset": 4194048,
      "componentType": 5126,
      "count": 33488,
      "max": [
        0.9919137954711914,
        0.9999966025352478
      ],
      "min": [
        1.1733267456293106e-05,
        0.002349045593291521
      ],
      "type": "VEC2"
    },
    {
      "bufferView": 0,
      "byteOffset": 11236500,
      "componentType": 5125,
      "count": 151683,
      "type": "SCALAR"
    }
  ],
  "asset": {
    "extras": {
      "author": "Alexei Tiong (https://sketchfab.com/alexeitiong)",
      "license": "CC-BY-4.0 (http://creativecommons.org/licenses/by/4.0/)",
      "source": "https://sketchfab.com/3d-models/mars-surface-terrain-model-28632892cc554bce9369637ed583af41",
      "title": "Mars Surface Terrain Model."
    },
    "generator": "Sketchfab-12.66.0",
    "version": "2.0"
  },
  "bufferViews": [
    {
      "buffer": 0,
      "byteLength": 11843232,
      "name": "floatBufferViews",
      "target": 34963
    },
    {
      "buffer": 0,
      "byteLength": 4461952,
      "byteOffset": 11843232,
      "byteStride": 8,
      "name": "floatBufferViews",
      "target": 34962
    },
    {
      "buffer": 0,
      "byteLength": 13385856,
      "byteOffset": 16305184,
      "byteStride": 12,
      "name": "floatBufferViews",
      "target": 34962
    }
  ],
  "buffers": [
    {
      "byteLength": 29691040,
      "uri": "scene.bin"
    }
  ],
  "extensionsUsed": [
    "KHR_materials_unlit"
  ],
  "images": [
    {
      "uri": "textures/material0_baseColor.jpeg"
    }
  ],
  "materials": [
    {
      "doubleSided": true,
      "extensions": {
        "KHR_materials_unlit": {}
      },
      "name": "material0",
      "pbrMetallicRoughness": {
        "baseColorTexture": {
          "index": 0
        },
        "metallicFactor": 0.0
      }
    }
  ],
  "meshes": [
    {
      "name": "Model_material0_0",
      "primitives": [
        {
          "attributes": {
            "NORMAL": 1,
            "POSITION": 0,
            "TEXCOORD_0": 2
          },
          "indices": 3,
          "material": 0,
          "mode": 4
        }
      ]
    },
    {
      "name": "Model_material0_0",
      "primitives": [
        {
          "attributes": {
            "NORMAL": 5,
            "POSITION": 4,
            "TEXCOORD_0": 6
          },
          "indices": 7,
          "material": 0,
          "mode": 4
        }
      ]
    },
    {
      "name": "Model_material0_0",
      "primitives": [
        {
          "attributes": {
            "NORMAL": 9,
            "POSITION": 8,
            "TEXCOORD_0": 10
          },
          "indices": 11,
          "material": 0,
          "mode": 4
        }
      ]
    },
    {
      "name": "Model_material0_0",
      "primitives": [
        {
          "attributes": {
            "NORMAL": 13,
            "POSITION": 12,
            "TEXCOORD_0": 14
          },
          "indices": 15,
          "material": 0,
          "mode": 4
        }
      ]
    },
    {
      "name": "Model_material0_0",
      "primitives": [
        {
          "attributes": {
            "NORMAL": 17,
            "POSITION": 16,
            "TEXCOORD_0": 18
          },
          "indices": 19,
          "material": 0,
          "mode": 4
        }
      ]
    },
    {
      "name": "Model_material0_0",
      "primitives": [
        {
          "attributes": {
            "NORMAL": 21,
            "POSITION": 20,
            "TEXCOORD_0": 22
          },
          "indices": 23,
          "material": 0,
          "mode": 4
        }
      ]
    },
    {
      "name": "Model_material0_0",
      "primitives": [
        {
          "attributes": {
            "NORMAL": 25,
            "POSITION": 24,
            "TEXCOORD_0": 26
          },
          "indices": 27,
          "material": 0,
          "mode": 4
        }
      ]
    },
    {
      "name": "Model_material0_0",
      "primitives": [
        {
          "attributes": {
            "NORMAL": 29,
            "POSITION": 28,
            "TEXCOORD_0": 30
          },
          "indices": 31,
          "material": 0,
          "mode": 4
        }
      ]
    },
    {
      "name": "Model_material0_0",
      "primitives": [
        {
          "attributes": {
            "NORMAL": 33,
            "POSITION": 32,
            "TEXCOORD_0": 34
          },
          "indices": 35,
          "material": 0,
          "mode": 4
        }
      ]
    }
  ],
  "nodes": [
    {
      "children": [
        1
      ],
      "matrix": [
        0.9947499632835388,
        -0.09626802802085875,
        -0.034712404012680075,
        0.0,
        -0.009792990051209927,
        0.24809722602367423,
        -0.9686856269836426,
        0.0,
        0.1018655076622963,
        0.9639399647712708,
        0.24585194885730766,
        0.0,
        0.30629268288612366,
        -1.0839699506759646,
        0.5201063156127927,
        1.0
      ],
      "name": "Sketchfab_model"
    },
    {
      "children": [
        2
      ],
      "matrix": [
        1.0,
        0.0,
        0.0,
        0.0,
        0.0,
        -1.0,
        0.0,
        0.0,
        0.0,
        0.0,
        -1.0,
        0.0,
        0.0,
        0.0,
        0.0,
        1.0
      ],
      "name": "model.fbx"
    },
    {
      "children": [
        3
      ],
      "name": "RootNode"
    },
    {
      "children": [
        4,
        5,
        6,
        7,
        8,
        9,
        10,
        11,
        12
      ],
      "name": "Model"
    },
    {
      "mesh": 0,
      "name": "Model_material0_0"
    },
    {
      "mesh": 1,
      "name": "Model_material0_0"
    },
    {
      "mesh": 2,
      "name": "Model_material0_0"
    },
    {
      "mesh": 3,
      "name": "Model_material0_0"
    },
    {
      "mesh": 4,
      "name": "Model_material0_0"
    },
    {
      "mesh": 5,
      "name": "Model_material0_0"
    },
    {
      "mesh": 6,
      "name": "Model_material0_0"
    },
    {
      "mesh": 7,
      "name": "Model_material0_0"
    },
    {
      "mesh": 8,
      "name": "Model_material0_0"
    }
  ],
  "samplers": [
    {
      "magFilter": 9729,
      "minFilter": 9987,
      "wrapS": 10497,
      "wrapT": 10497
    }
  ],
  "scene": 0,
  "scenes": [
    {
      "name": "Sketchfab_Scene",
      "nodes": [
        0
      ]
    }
  ],
  "textures": [
    {
      "sampler": 0,
      "source": 0
    }
  ]
}
